<?xml version="1.0" encoding="UTF-8"?>
<svg width="150px" height="44px" viewBox="0 0 150 44" version="1.1" xmlns="http://www.w3.org/2000/svg" xmlns:xlink="http://www.w3.org/1999/xlink">
    <!-- Generator: Sketch 51.3 (57544) - http://www.bohemiancoding.com/sketch -->
    <title>curious_logo</title>
    <desc>Created with Sketch.</desc>
    <defs></defs>
    <g id="Page-1" stroke="none" stroke-width="1" fill="none" fill-rule="evenodd">
        <path d="M135.907204,6.10404945 C135.569887,-0.142793751 139.506014,2.67229742 139.920823,7.1195913 C140.037061,8.38271446 139.795469,10.0240868 139.321402,11.8465604 C137.411457,9.59540438 135.989254,7.61475392 135.907204,6.10404945 M94.8069203,10.4252603 C98.0934843,10.3885815 100.333909,16.3672117 100.609689,22.6599032 C90.0434537,25.2411676 88.8901934,10.4940328 94.8069203,10.4252603 M46.6092993,10.6522098 C46.3038905,9.11170386 50.0827553,5.25814665 50.8075316,6.38601705 C51.226899,7.03935662 50.9944236,8.5638156 50.4975644,10.8745745 C48.327794,11.0877695 46.7095828,11.1565421 46.6092993,10.6522098 M140.271816,12.9423369 C144.522469,17.7930966 150.300166,23.6616906 149.98792,28.7600316 C149.525248,36.3318933 139.262143,45.4488457 133.051403,43.7088993 C126.412179,41.8497471 131.305558,32.6617296 137.602907,29.6494904 C139.40801,28.8952844 139.528806,30.4059888 137.669003,31.1670721 C132.091872,33.4503219 128.301612,41.6640611 133.641708,41.6640611 C137.315731,41.6640611 143.189154,36.7789151 143.681455,30.3028299 C143.950397,26.7633342 140.971521,23.2628096 137.903757,19.5743066 C134.669614,27.1438758 129.919823,34.3856291 127.501623,34.303102 C121.90398,34.1128312 122.972911,17.866454 122.972911,17.866454 C122.972911,17.866454 119.64988,31.0203572 112.914931,30.8896893 C109.038062,30.8117471 108.112718,24.7139111 108.832936,19.5926459 C107.032391,21.0391626 105.343526,22.1005529 103.775457,22.8295423 C103.296831,30.7246351 99.0985986,38.9452515 91.4383061,38.4432117 C80.2635326,37.7142223 82.032169,23.7877737 82.820762,21.1033504 C82.0481232,21.4082422 81.1820384,23.4209865 80.229345,26.0893629 C77.9501744,33.3861342 76.0584628,43.2710472 71.9172098,43.2710472 C68.4186829,43.2710472 66.9622929,33.5420187 67.5320856,25.5070883 C64.0791421,31.9029388 59.0079875,39.6948727 55.2245642,39.6421471 C45.9118731,39.5137716 58.2285111,13.8317957 57.6746727,12.8529325 C57.0456216,11.7411091 54.4952297,11.8373907 51.5368662,12.0276615 C49.1688079,23.9505354 42.0350039,42.6337546 39.3478618,42.6337546 C33.7502187,42.6337546 35.4117341,20.8580615 35.4117341,20.8580615 C35.4117341,20.8580615 32.0887034,34.0119647 25.3537542,33.8790044 C22.8648999,33.8308636 21.5954019,31.2954476 21.1897095,28.1342011 C18.0763624,33.5626505 13.1852623,40.2656852 7.98191578,40.2656852 C-7.20647719,40.2656852 1.32445842,0.723740828 16.5128514,0.771881638 C18.3567004,0.778758897 19.9657949,1.47336201 21.0347259,2.4820266 L21.0461217,2.45910241 C21.0461217,2.45910241 22.4728825,3.71076347 22.3953907,5.29024052 C22.3703199,5.81520459 22.2130571,6.27139607 21.9965359,6.66569223 C21.9874192,6.67944675 21.9874192,6.69549369 21.9805817,6.71154062 C21.9190441,6.82845402 21.8689023,6.90181144 21.8255981,6.94995225 C21.2854346,7.72479005 20.4831666,8.14888766 19.9612365,8.10533169 C18.7190885,7.99758798 19.6581068,5.45987956 20.3919998,3.82309202 C19.8267655,3.21101601 18.9720765,2.75711695 17.6182491,2.78233356 C10.5117952,2.90612421 0.722757374,38.2437712 8.25769542,38.3308831 C13.0393954,38.3859012 18.0353374,31.1097616 21.0529592,25.7821786 C21.0438426,20.8534767 22.7213121,15.5236013 25.0460662,15.6680237 C29.3331861,15.9316519 25.7024673,30.6696171 27.9337753,30.6696171 C32.6129126,30.6696171 33.8231522,14.8381678 37.6863464,14.3475901 C43.2406852,13.6438173 37.8618425,38.8077064 40.1341756,38.8077064 C42.7369885,38.8077064 48.1454603,21.3623938 50.2309014,12.112481 C47.566551,12.2798276 44.7540545,12.3944486 42.8030844,11.7090152 C38.2994433,10.1249533 44.6127459,2.17484239 50.8941401,2.33760417 C52.8633435,2.39032982 52.6718932,5.86563782 51.7784583,10.7416141 C56.156745,10.2716681 61.8569507,9.57477261 62.7914107,11.401831 C64.3230133,14.391146 54.4883921,35.7931747 57.2803761,36.1668391 C59.9196557,36.5221641 64.9019227,27.8820349 67.9104279,22.1326468 C68.5258039,18.2745047 69.7064143,15.3562546 71.452259,15.074287 C76.088092,14.3246659 70.463099,42.6337546 73.8864132,39.8851435 C75.6459329,38.4730131 77.7723991,28.9136237 80.1450157,22.964795 C82.2122235,17.4286019 84.315898,15.1063809 86.934665,15.0880416 C90.3693751,15.0674098 82.7341535,37.565215 93.3619261,36.9921101 C98.5538768,36.7124349 100.646155,30.3486783 100.637039,23.920734 C89.2616982,26.369038 86.0845344,10.1203685 94.8069203,8.97415869 C100.928773,8.16951944 103.859786,14.4736731 103.82104,21.4540906 C105.423297,20.6632058 107.191933,19.5147037 109.12467,17.9696129 C109.794746,14.9344495 111.057407,12.5801346 112.607243,12.6764162 C116.894363,12.9400445 113.263644,27.6780096 115.494952,27.6780096 C120.174089,27.6780096 121.386608,11.8465604 125.247523,11.3559826 C130.801862,10.6522098 127.326127,30.0804652 129.59846,30.0804652 C130.858841,30.0804652 134.382439,24.4296511 136.971577,18.4441437 C134.485001,15.4066879 132.151131,12.2293944 131.677063,8.78618029 C130.605853,1.00112359 140.862121,-3.75106208 141.247301,6.67715433 C141.311117,8.40334623 140.930496,10.5834372 140.271816,12.9423369 Z M72.7429942,12.4922428 C71.2542879,12.4922428 70.0488104,11.3861096 70.0488104,10.0225743 C70.0488104,8.65903905 71.2542879,7.55290585 72.7429942,7.55290585 C74.2317004,7.55290585 75.4371779,8.65903905 75.4371779,10.0225743 C75.4371779,11.3861096 74.2317004,12.4922428 72.7429942,12.4922428 Z" id="curious_logo" fill="#404042"></path>
    </g>
</svg>