<?xml version="1.0" encoding="utf-8"?>
<!-- Generator: Adobe Illustrator 19.0.0, SVG Export Plug-In . SVG Version: 6.00 Build 0)  -->
<svg version="1.1" id="Layer_1" xmlns="http://www.w3.org/2000/svg" xmlns:xlink="http://www.w3.org/1999/xlink" x="0px" y="0px"
	 viewBox="0 0 554 149" enable-background="new 0 0 554 149" xml:space="preserve">
<g>
	<g>
		<path fill="#95BF47" d="M148.689,32.022c-0.086-0.626-0.634-0.973-1.086-1.01c-0.452-0.038-10.02-0.747-10.02-0.747
			s-6.645-6.597-7.374-7.327c-0.729-0.73-2.154-0.508-2.708-0.346c-0.082,0.024-1.452,0.447-3.719,1.148
			c-2.22-6.387-6.137-12.257-13.029-12.257c-0.19,0-0.386,0.009-0.583,0.019c-1.96-2.592-4.388-3.719-6.485-3.719
			c-16.054,0-23.724,20.07-26.129,30.268c-6.238,1.933-10.67,3.307-11.236,3.485c-3.482,1.093-3.592,1.202-4.048,4.483
			c-0.346,2.484-9.457,72.945-9.457,72.945l70.996,13.302l38.467-8.322C162.278,123.945,148.774,32.648,148.689,32.022z
			 M119.856,24.955c-1.782,0.552-3.809,1.179-6.006,1.859c0.001-0.423,0.003-0.839,0.003-1.295c0-3.97-0.551-7.166-1.435-9.7
			C115.97,16.265,118.335,20.305,119.856,24.955z M108.014,16.605c0.987,2.474,1.629,6.025,1.629,10.815
			c0,0.245-0.002,0.47-0.004,0.697c-3.908,1.21-8.153,2.524-12.407,3.841C99.621,22.739,104.098,18.286,108.014,16.605z
			 M103.243,12.091c0.694,0,1.391,0.235,2.06,0.695c-5.146,2.421-10.66,8.519-12.99,20.695c-3.404,1.054-6.731,2.085-9.807,3.038
			C85.235,27.231,91.712,12.091,103.243,12.091z"/>
		<path fill="#5E8E3E" d="M147.602,31.012c-0.452-0.038-10.02-0.747-10.02-0.747s-6.645-6.597-7.374-7.327
			c-0.272-0.272-0.641-0.412-1.025-0.472l-5.368,109.799l38.463-8.321c0,0-13.503-91.296-13.589-91.922
			C148.603,31.396,148.054,31.049,147.602,31.012z"/>
		<path fill="#FFFFFF" d="M110.752,52.267l-4.743,14.109c0,0-4.156-2.219-9.25-2.219c-7.469,0-7.844,4.688-7.844,5.868
			c0,6.444,16.797,8.913,16.797,24.007c0,11.875-7.531,19.522-17.688,19.522c-12.188,0-18.419-7.585-18.419-7.585l3.263-10.781
			c0,0,6.406,5.5,11.812,5.5c3.531,0,4.969-2.781,4.969-4.812c0-8.406-13.781-8.781-13.781-22.594
			c0-11.625,8.344-22.875,25.188-22.875C107.546,50.407,110.752,52.267,110.752,52.267z"/>
	</g>
	<path id="s" d="M207.121,78.717c-3.836-2.082-5.809-3.836-5.809-6.248c0-3.069,2.74-5.042,7.015-5.042
		c4.98,0,9.427,2.082,9.427,2.082l3.507-10.742c0,0-3.225-2.521-12.715-2.521c-13.208,0-22.361,7.563-22.361,18.196
		c0,6.028,4.275,10.632,9.974,13.92c4.604,2.631,6.248,4.495,6.248,7.235c0,2.85-2.302,5.152-6.577,5.152
		c-6.368,0-12.386-3.289-12.386-3.289l-3.726,10.742c0,0,5.557,3.726,14.907,3.726c13.592,0,23.347-6.686,23.347-18.743
		C217.972,86.719,213.04,82.115,207.121,78.717z"/>
	<path id="h" d="M261.269,56.137c-6.686,0-11.947,3.179-16.003,8.001l-0.22-0.109l5.81-30.362H235.73l-14.688,77.276h15.126
		l5.042-26.416c1.973-9.975,7.125-16.113,11.948-16.113c3.397,0,4.713,2.302,4.713,5.59c0,2.082-0.22,4.603-0.658,6.686l-5.7,30.253
		h15.127l5.919-31.239c0.657-3.289,1.097-7.235,1.097-9.865C273.656,61.289,269.161,56.137,261.269,56.137z"/>
	<path id="o" d="M307.855,56.137c-18.196,0-30.253,16.442-30.253,34.747c0,11.729,7.234,21.155,20.826,21.155
		c17.867,0,29.924-16.003,29.924-34.747C328.352,66.441,321.995,56.137,307.855,56.137z M300.402,100.42
		c-5.152,0-7.344-4.385-7.344-9.865c0-8.659,4.494-22.8,12.715-22.8c5.371,0,7.125,4.604,7.125,9.098
		C312.897,86.171,308.403,100.42,300.402,100.42z"/>
	<path id="p" d="M367.046,56.137c-10.209,0-16.004,8.988-16.004,8.988h-0.219l0.877-8.111h-13.372
		c-0.658,5.481-1.864,13.811-3.07,20.059l-10.523,55.354h15.127l4.165-22.361h0.329c0,0,3.106,1.973,8.879,1.973
		c17.757,0,29.375-18.195,29.375-36.61C382.611,65.235,378.117,56.137,367.046,56.137z M352.578,100.639
		c-3.928,0-6.248-2.192-6.248-2.192l2.521-14.14c1.754-9.426,6.686-15.674,11.948-15.674c4.603,0,6.028,4.275,6.028,8.33
		C366.827,86.719,361.018,100.639,352.578,100.639z"/>
	<path id="dot" d="M404.206,34.434c-4.822,0-8.659,3.836-8.659,8.769c0,4.494,2.85,7.563,7.125,7.563h0.22
		c4.713,0,8.769-3.179,8.878-8.769C411.769,37.613,408.81,34.434,404.206,34.434z"/>
	<polygon id="i" points="383.051,110.943 398.178,110.943 408.481,57.343 393.245,57.343 	"/>
	<path id="f" d="M446.954,57.233h-10.523l0.548-2.521c0.877-5.152,3.946-9.756,8.989-9.756c2.693,0,4.822,0.767,4.822,0.767
		l2.96-11.838c0,0-2.631-1.315-8.221-1.315c-5.371,0-10.742,1.535-14.797,5.043c-5.152,4.384-7.563,10.742-8.769,17.099
		l-0.438,2.521h-7.015l-2.192,11.4h7.015l-8.002,42.31h15.127l8.001-42.31h10.413L446.954,57.233z"/>
	<path id="y" d="M483.345,57.343c0,0-9.456,23.825-13.701,36.83h-0.219c-0.291-4.187-3.727-36.83-3.727-36.83h-15.893l9.098,49.216
		c0.219,1.096,0.109,1.754-0.329,2.521c-1.754,3.398-4.714,6.686-8.221,9.097c-2.85,2.083-6.028,3.398-8.549,4.275l4.165,12.825
		c3.069-0.658,9.427-3.179,14.798-8.221c6.906-6.467,13.263-16.442,19.84-30.034l18.524-39.679H483.345z"/>
</g>
</svg>
