<?xml version="1.0" encoding="UTF-8" standalone="no"?><!-- Generator: Gravit.io --><svg xmlns="http://www.w3.org/2000/svg" xmlns:xlink="http://www.w3.org/1999/xlink" style="isolation:isolate" viewBox="165.59 304.121 2508.41 278.606" width="2508.41pt" height="278.606pt"><g><path d=" M 957.5 338.5 C 924.4 344.5 895.7 366.3 881 396.3 C 869.7 419.6 867.2 451.1 874.6 477 C 884.7 512 913.2 539.7 949.5 549.7 C 958.7 552.2 960.9 552.5 977.5 552.4 C 997 552.4 1006.1 550.9 1019.9 545.6 C 1047.2 534.8 1068.5 511.2 1075.8 483.5 C 1079.3 470.5 1080.5 449.5 1078.4 439.2 L 1078 437 L 1027.5 437 L 977 437 L 977 450 L 977 463 L 1014.6 463 L 1052.2 463 L 1051.5 467.2 C 1046.6 496.4 1027.6 517.2 999.4 524.2 C 986.8 527.3 967.7 527.3 956.7 524.2 C 917.9 513.1 894.4 476.8 898.9 435 C 901 415.7 908.2 400 921 387 C 929.8 378 937 373.1 947.5 368.9 C 975.6 357.7 1007.8 363 1029.7 382.4 L 1035.2 387.3 L 1044.8 377.6 L 1054.5 367.9 L 1047.6 361.4 C 1036.9 351.4 1021.9 343.8 1004.5 339.8 C 992.7 337.1 969 336.4 957.5 338.5 Z " fill="rgb(0,0,0)" fill-opacity="0.5418999999999999"/><path d=" M 1390.5 337.9 C 1366.3 342 1348 351.3 1331.1 368.1 C 1311.6 387.7 1301.6 410.6 1300.3 439 C 1299.1 464.5 1304.8 486.2 1317.7 505.7 C 1322.7 513.3 1334.9 526 1343 532.2 C 1351.9 539 1367.5 546.4 1379.5 549.7 C 1388.8 552.3 1390.8 552.5 1408 552.4 C 1423.8 552.3 1427.7 552 1435 550.1 C 1451.8 545.7 1463.5 539.9 1474.5 530.6 C 1491.4 516.4 1500.9 501.7 1506 482 C 1508.4 472.6 1509.7 452 1508.6 442.7 L 1507.9 437 L 1457.4 437 L 1407 437 L 1407 450 L 1407 463 L 1444.5 463 L 1482 463 L 1481.4 466.2 C 1477.8 486.2 1469.8 500.5 1456.4 510.9 C 1443.6 520.7 1429.8 525.6 1411.5 526.6 C 1374.1 528.7 1340.8 504.6 1330.8 468.1 C 1327.7 457.1 1327.7 432.9 1330.8 421.8 C 1336.7 400.1 1351.3 381.9 1371 371.6 C 1398.6 357.1 1438.1 361.9 1458.9 382.2 C 1461.5 384.9 1464.1 387 1464.6 387 C 1465.1 387 1469.8 382.7 1475 377.4 L 1484.5 367.8 L 1478 361.8 C 1467 351.6 1454.2 345 1436 340.3 C 1428.4 338.3 1423.4 337.8 1411 337.5 C 1402.5 337.3 1393.3 337.5 1390.5 337.9 Z " fill="rgb(0,0,0)" fill-opacity="0.5418999999999999"/><path d=" M 1111 444.5 L 1111 548.1 L 1154.3 547.7 C 1194.5 547.3 1198 547.2 1205.3 545.2 C 1223.2 540.3 1236.1 533.4 1247.7 522.6 C 1269.6 502.2 1279.1 478.8 1279.1 445 C 1279.1 424.8 1276.4 411.2 1269.4 396.4 C 1258.7 373.6 1237.5 354.9 1213.6 347 C 1199.8 342.5 1192.4 341.8 1150.8 341.3 L 1111 340.8 L 1111 444.5 Z  M 1195.2 370 C 1222.3 376 1241.6 394.2 1248.6 420.5 C 1251.3 430.6 1251.3 459.5 1248.6 469.4 C 1240.9 498.1 1220.3 516.2 1190 521 C 1186.4 521.5 1173.3 522 1160.8 522 L 1138 522 L 1138 445 L 1138 368 L 1162.3 368 C 1182.4 368 1188 368.4 1195.2 370 Z " fill="rgb(0,0,0)" fill-opacity="0.5418999999999999"/><path d=" M 1604 444.5 L 1604 548 L 1617.5 548 L 1631.1 548 L 1630.8 469.7 L 1630.5 391.4 L 1641.1 409.9 C 1646.9 420.1 1661.5 445.7 1673.5 466.8 L 1695.3 505.1 L 1703.4 504.8 L 1711.5 504.5 L 1733.7 465.5 C 1746 444 1760.4 418.8 1765.7 409.4 L 1775.5 392.4 L 1775.1 470.2 L 1774.8 548 L 1788.9 548 L 1803 548 L 1802.8 444.7 L 1802.5 341.5 L 1788.9 341.2 L 1775.3 340.9 L 1739.3 404 L 1703.3 467 L 1667.4 404.3 L 1631.5 341.5 L 1617.8 341.2 L 1604 340.9 L 1604 444.5 Z " fill="rgb(0,0,0)" fill-opacity="0.5418999999999999"/><path d=" M 2646 444.5 L 2646 548 L 2660 548 L 2674 548 L 2674 444.5 L 2674 341 L 2660 341 L 2646 341 L 2646 444.5 Z " fill="rgb(0,0,0)" fill-opacity="0.5418999999999999"/><path d=" M 2161 385 L 2161 407 L 2148.5 407 L 2136 407 L 2136 419 L 2136 431 L 2148.4 431 L 2160.9 431 L 2161.3 474.7 C 2161.7 523.3 2161.9 524.4 2168.3 534.2 C 2176.8 547 2192 552.5 2211.8 550 C 2223.7 548.5 2227.3 547.3 2226.5 545.1 C 2226.1 544.2 2224.2 539 2222.3 533.5 C 2220.3 528 2218.6 523.4 2218.5 523.2 C 2218.3 523 2215.6 523.4 2212.3 524.1 C 2208.9 524.8 2204.8 525 2202.5 524.6 C 2197.5 523.6 2191.6 517.9 2190.1 512.5 C 2189.4 509.9 2189 494.9 2189 469.7 L 2189 431 L 2206 431 L 2223 431 L 2223 419 L 2223 407 L 2206 407 L 2189 407 L 2189 385 L 2189 363 L 2175 363 L 2161 363 L 2161 385 Z " fill="rgb(0,0,0)" fill-opacity="0.5418999999999999"/><path d=" M 1886.5 403.4 C 1872.7 406.6 1862.4 412.2 1852.4 422 C 1837.5 436.5 1830.8 453.7 1830.8 477 C 1830.7 500.8 1837 517 1852.2 532.3 C 1859.7 539.9 1862.3 541.7 1870.5 545.6 C 1892 555.8 1917.4 555.5 1938.3 544.9 C 1954.4 536.6 1968.5 518.7 1973.7 500 C 1976.2 490.8 1976.2 464.3 1973.7 455 C 1967.2 430.9 1947.6 410.7 1924.5 404.4 C 1916.3 402.2 1894.4 401.6 1886.5 403.4 Z  M 1914.5 428.5 C 1926.3 431.6 1938 441.2 1943.4 452.3 C 1950.5 466.8 1950.6 487.3 1943.6 502.7 C 1940.3 509.7 1930.3 519.8 1922.8 523.4 C 1896.8 536.1 1865.6 520.2 1859.4 491.1 C 1856.6 477.8 1858.2 462.5 1863.4 452.1 C 1864.8 449.5 1868.2 444.8 1871 441.7 C 1882.3 429.3 1898.6 424.4 1914.5 428.5 Z " fill="rgb(0,0,0)" fill-opacity="0.5418999999999999"/><path d=" M 2057.1 403 C 2046.5 405.3 2031.6 414.5 2026 422.2 L 2023 426.3 L 2023 416.7 L 2023 407 L 2010 407 L 1997 407 L 1997 477.5 L 1997 548 L 2010.4 548 L 2023.9 548 L 2024.3 504.2 C 2024.7 455.4 2024.7 455.4 2031.9 444.3 C 2038.9 433.4 2047.4 428.2 2059.7 427.3 C 2075.6 426 2088.3 433.8 2092.8 447.4 C 2094.9 453.8 2095 455.4 2095 501 L 2095 548 L 2109.1 548 L 2123.1 548 L 2122.7 496.7 C 2122.3 441.1 2122.2 440.6 2116.4 428.3 C 2110.7 416.4 2101.5 408.6 2088.1 404.4 C 2082.4 402.6 2063.1 401.7 2057.1 403 Z " fill="rgb(0,0,0)" fill-opacity="0.5418999999999999"/><path d=" M 2389 403.6 C 2368.7 407.9 2350.4 424 2341.3 445.5 C 2337.2 455 2335.7 466 2336.3 481.4 C 2337.1 504.7 2342.4 517.6 2357.4 532.5 C 2367.3 542.4 2373.8 546.4 2386 550.1 C 2395.7 553.2 2416.8 553.5 2427 550.7 C 2438.6 547.6 2449.7 541.3 2458.1 533 C 2464.9 526.3 2472 517 2472 514.8 C 2472 513.8 2450.5 503 2448.8 503.1 C 2448.1 503.1 2445.6 505.8 2443.3 509 C 2432.2 524.5 2413.6 531.4 2396.7 526.1 C 2378.8 520.6 2366.1 505.8 2364.3 488.3 L 2363.7 483 L 2419.1 482.8 L 2474.5 482.5 L 2474.2 472 C 2473.3 446.2 2462.6 424.6 2444.7 412.4 C 2439.1 408.6 2428.3 404.4 2420.9 403.1 C 2412.2 401.6 2397.1 401.8 2389 403.6 Z  M 2415.9 428.1 C 2422.9 429.7 2430.5 433.7 2435 438.3 C 2439.5 443 2445 453.4 2445 457.4 L 2445 460 L 2405.5 460 L 2366 460 L 2366.6 457.2 C 2368.7 448.5 2378.6 435.8 2386.4 431.8 C 2395.4 427.1 2406.1 425.8 2415.9 428.1 Z " fill="rgb(0,0,0)" fill-opacity="0.5418999999999999"/><path d=" M 2538.5 403 C 2531.6 404.2 2522 407.6 2516.3 410.7 C 2511.8 413.2 2496 428 2496 429.7 C 2496 430.4 2516.6 443.9 2519 444.8 C 2519.4 445 2522.3 442.4 2525.4 439.2 C 2538.7 425.2 2557.9 422.3 2573.9 431.8 C 2584.5 438 2591 448.9 2591 460.2 C 2591 462.3 2590.9 464 2590.7 464 C 2590.5 464 2587.6 462.9 2584.2 461.5 C 2564.3 453.4 2533.7 454.7 2515.5 464.3 C 2507.5 468.6 2499 477.1 2495.7 484.2 C 2492.1 491.8 2490.6 502.8 2492 511.6 C 2494.8 529.5 2508.5 544.5 2527.7 550.6 C 2530.3 551.4 2537.3 552.4 2543.2 552.7 C 2552.9 553.2 2554.7 553 2562.3 550.6 C 2572.2 547.6 2580.8 541.7 2586.9 534 L 2591 528.8 L 2591 538.4 L 2591 548 L 2604 548 L 2617 548 L 2617 499.7 C 2617 455.1 2616.8 450.7 2615.1 443.8 C 2612.3 432.8 2608.6 426.4 2601.1 419 C 2589.2 407.3 2577.6 403 2556.5 402.5 C 2549.4 402.3 2541.3 402.5 2538.5 403 Z  M 2567.5 479 C 2575.4 480.2 2581.8 482.3 2587.3 485.7 C 2591.5 488.3 2591.5 488.5 2589.5 496.4 C 2587.6 503.7 2584.3 509.4 2578.4 515.4 C 2569.7 524.2 2560.4 528.1 2548.2 528.1 C 2527.9 528.1 2514.6 511.5 2522.1 495.5 C 2525.8 487.7 2535.4 481.5 2547 479.4 C 2555.3 477.9 2558.9 477.8 2567.5 479 Z " fill="rgb(0,0,0)" fill-opacity="0.5418999999999999"/><path d=" M 2305.5 403.9 C 2299.9 405.3 2289.4 410.9 2284.6 415.1 C 2282 417.4 2278.6 421.6 2277 424.4 L 2274 429.5 L 2274 418.2 L 2274 407 L 2261 407 L 2248 407 L 2248 477.5 L 2248 548 L 2261.4 548 L 2274.9 548 L 2275.2 504.7 C 2275.5 463.1 2275.6 461.3 2277.7 456.2 C 2282.2 445.2 2292.3 435.3 2302.3 432 C 2306.2 430.8 2318.9 430.5 2324.6 431.6 L 2327.8 432.2 L 2331.9 419.4 C 2334.1 412.3 2335.6 406.2 2335.2 405.9 C 2332.4 403.4 2312.9 402.1 2305.5 403.9 Z " fill="rgb(0,0,0)" fill-opacity="0.5418999999999999"/><path d=" M 302.684 443.977 L 396.227 390.024 C 418.232 377.318 425.782 349.145 413.076 327.14 C 400.37 305.135 372.197 297.585 350.192 310.291 L 188.608 403.558 L 302.684 443.977 Z " fill="rgb(234,67,53)"/><path d=" M 373.117 582.727 C 389.046 582.727 404.513 574.441 412.984 559.71 C 425.69 537.705 418.14 509.531 396.135 496.826 L 234.644 403.558 C 212.639 390.853 184.465 398.402 171.76 420.407 C 159.054 442.412 166.604 470.586 188.608 483.291 L 350.192 576.559 C 357.466 580.702 365.384 582.727 373.117 582.727 L 373.117 582.727 Z " fill="rgb(66,133,244)"/><path d=" M 533.872 582.727 C 541.698 582.727 549.616 580.702 556.798 576.559 L 718.381 483.291 L 605.779 442.044 L 510.855 496.826 C 488.85 509.531 481.3 537.705 494.006 559.71 C 502.476 574.441 517.944 582.727 533.872 582.727 Z " fill="rgb(251,188,4)"/><path d=" M 695.364 489.46 C 711.292 489.46 726.76 481.174 735.23 466.442 C 747.936 444.438 740.386 416.264 718.381 403.558 L 556.798 310.291 C 534.793 297.585 506.712 305.135 494.006 327.14 C 481.3 349.145 488.85 377.318 510.855 390.024 L 672.438 483.291 C 679.62 487.434 687.538 489.46 695.364 489.46 Z " fill="rgb(15,157,88)"/></g></svg>